<mxfile host="app.diagrams.net" modified="2023-04-17T17:10:12.168Z" agent="Mozilla/5.0 (Windows NT 10.0; Win64; x64) AppleWebKit/537.36 (KHTML, like Gecko) Chrome/112.0.0.0 Safari/537.36" etag="Stfie_5glR6Y-I_6JZrO" version="21.1.8" type="github">
  <diagram name="페이지-1" id="tfntLOjEwPx6dU1QSqm7">
    <mxGraphModel dx="1729" dy="-573" grid="1" gridSize="10" guides="1" tooltips="1" connect="1" arrows="1" fold="1" page="1" pageScale="1" pageWidth="827" pageHeight="1169" math="0" shadow="0">
      <root>
        <mxCell id="0" />
        <mxCell id="1" parent="0" />
        <mxCell id="vlrbVK2JiHI_tm7slKyw-1" value="Manufacturing Plant" style="swimlane;fontStyle=0;childLayout=stackLayout;horizontal=1;startSize=26;fillColor=none;horizontalStack=0;resizeParent=1;resizeParentMax=0;resizeLast=0;collapsible=1;marginBottom=0;whiteSpace=wrap;html=1;fontSize=17;" vertex="1" parent="1">
          <mxGeometry x="480" y="2189" width="247" height="130" as="geometry" />
        </mxCell>
        <mxCell id="vlrbVK2JiHI_tm7slKyw-2" value="- name: string" style="text;strokeColor=none;fillColor=none;align=left;verticalAlign=top;spacingLeft=4;spacingRight=4;overflow=hidden;rotatable=0;points=[[0,0.5],[1,0.5]];portConstraint=eastwest;whiteSpace=wrap;html=1;fontSize=17;" vertex="1" parent="vlrbVK2JiHI_tm7slKyw-1">
          <mxGeometry y="26" width="247" height="26" as="geometry" />
        </mxCell>
        <mxCell id="vlrbVK2JiHI_tm7slKyw-3" value="- location: string" style="text;strokeColor=none;fillColor=none;align=left;verticalAlign=top;spacingLeft=4;spacingRight=4;overflow=hidden;rotatable=0;points=[[0,0.5],[1,0.5]];portConstraint=eastwest;whiteSpace=wrap;html=1;fontSize=17;" vertex="1" parent="vlrbVK2JiHI_tm7slKyw-1">
          <mxGeometry y="52" width="247" height="26" as="geometry" />
        </mxCell>
        <mxCell id="vlrbVK2JiHI_tm7slKyw-4" value="- IndustryClassfication: enum" style="text;strokeColor=none;fillColor=none;align=left;verticalAlign=top;spacingLeft=4;spacingRight=4;overflow=hidden;rotatable=0;points=[[0,0.5],[1,0.5]];portConstraint=eastwest;whiteSpace=wrap;html=1;fontSize=17;" vertex="1" parent="vlrbVK2JiHI_tm7slKyw-1">
          <mxGeometry y="78" width="247" height="26" as="geometry" />
        </mxCell>
        <mxCell id="vlrbVK2JiHI_tm7slKyw-5" value="- productClassfication: enum" style="text;strokeColor=none;fillColor=none;align=left;verticalAlign=top;spacingLeft=4;spacingRight=4;overflow=hidden;rotatable=0;points=[[0,0.5],[1,0.5]];portConstraint=eastwest;whiteSpace=wrap;html=1;fontSize=17;" vertex="1" parent="vlrbVK2JiHI_tm7slKyw-1">
          <mxGeometry y="104" width="247" height="26" as="geometry" />
        </mxCell>
        <mxCell id="vlrbVK2JiHI_tm7slKyw-6" value="AnomalyManagementSession" style="swimlane;fontStyle=0;childLayout=stackLayout;horizontal=1;startSize=26;fillColor=none;horizontalStack=0;resizeParent=1;resizeParentMax=0;resizeLast=0;collapsible=1;marginBottom=0;whiteSpace=wrap;html=1;fontSize=17;" vertex="1" parent="1">
          <mxGeometry x="480" y="2429" width="247" height="104" as="geometry" />
        </mxCell>
        <mxCell id="vlrbVK2JiHI_tm7slKyw-7" value="- sessionId: int" style="text;strokeColor=none;fillColor=none;align=left;verticalAlign=top;spacingLeft=4;spacingRight=4;overflow=hidden;rotatable=0;points=[[0,0.5],[1,0.5]];portConstraint=eastwest;whiteSpace=wrap;html=1;fontSize=17;" vertex="1" parent="vlrbVK2JiHI_tm7slKyw-6">
          <mxGeometry y="26" width="247" height="26" as="geometry" />
        </mxCell>
        <mxCell id="vlrbVK2JiHI_tm7slKyw-8" value="- startTime: Date" style="text;strokeColor=none;fillColor=none;align=left;verticalAlign=top;spacingLeft=4;spacingRight=4;overflow=hidden;rotatable=0;points=[[0,0.5],[1,0.5]];portConstraint=eastwest;whiteSpace=wrap;html=1;fontSize=17;" vertex="1" parent="vlrbVK2JiHI_tm7slKyw-6">
          <mxGeometry y="52" width="247" height="26" as="geometry" />
        </mxCell>
        <mxCell id="vlrbVK2JiHI_tm7slKyw-9" value="- endTime: Date" style="text;strokeColor=none;fillColor=none;align=left;verticalAlign=top;spacingLeft=4;spacingRight=4;overflow=hidden;rotatable=0;points=[[0,0.5],[1,0.5]];portConstraint=eastwest;whiteSpace=wrap;html=1;fontSize=17;" vertex="1" parent="vlrbVK2JiHI_tm7slKyw-6">
          <mxGeometry y="78" width="247" height="26" as="geometry" />
        </mxCell>
        <mxCell id="vlrbVK2JiHI_tm7slKyw-10" value="Device" style="swimlane;fontStyle=0;childLayout=stackLayout;horizontal=1;startSize=26;fillColor=none;horizontalStack=0;resizeParent=1;resizeParentMax=0;resizeLast=0;collapsible=1;marginBottom=0;whiteSpace=wrap;html=1;fontSize=17;" vertex="1" parent="1">
          <mxGeometry x="110" y="2189" width="247" height="104" as="geometry" />
        </mxCell>
        <mxCell id="vlrbVK2JiHI_tm7slKyw-11" value="- deviceId: int" style="text;strokeColor=none;fillColor=none;align=left;verticalAlign=top;spacingLeft=4;spacingRight=4;overflow=hidden;rotatable=0;points=[[0,0.5],[1,0.5]];portConstraint=eastwest;whiteSpace=wrap;html=1;fontSize=17;" vertex="1" parent="vlrbVK2JiHI_tm7slKyw-10">
          <mxGeometry y="26" width="247" height="26" as="geometry" />
        </mxCell>
        <mxCell id="vlrbVK2JiHI_tm7slKyw-12" value="- name: String" style="text;strokeColor=none;fillColor=none;align=left;verticalAlign=top;spacingLeft=4;spacingRight=4;overflow=hidden;rotatable=0;points=[[0,0.5],[1,0.5]];portConstraint=eastwest;whiteSpace=wrap;html=1;fontSize=17;" vertex="1" parent="vlrbVK2JiHI_tm7slKyw-10">
          <mxGeometry y="52" width="247" height="26" as="geometry" />
        </mxCell>
        <mxCell id="vlrbVK2JiHI_tm7slKyw-13" value="- OperatingTime: Date" style="text;strokeColor=none;fillColor=none;align=left;verticalAlign=top;spacingLeft=4;spacingRight=4;overflow=hidden;rotatable=0;points=[[0,0.5],[1,0.5]];portConstraint=eastwest;whiteSpace=wrap;html=1;fontSize=17;" vertex="1" parent="vlrbVK2JiHI_tm7slKyw-10">
          <mxGeometry y="78" width="247" height="26" as="geometry" />
        </mxCell>
        <mxCell id="vlrbVK2JiHI_tm7slKyw-14" value="MeasurementDevice" style="swimlane;fontStyle=0;childLayout=stackLayout;horizontal=1;startSize=26;fillColor=none;horizontalStack=0;resizeParent=1;resizeParentMax=0;resizeLast=0;collapsible=1;marginBottom=0;whiteSpace=wrap;html=1;fontSize=17;" vertex="1" parent="1">
          <mxGeometry x="-230" y="2129" width="247" height="52" as="geometry" />
        </mxCell>
        <mxCell id="vlrbVK2JiHI_tm7slKyw-15" value="- measurementType: string" style="text;strokeColor=none;fillColor=none;align=left;verticalAlign=top;spacingLeft=4;spacingRight=4;overflow=hidden;rotatable=0;points=[[0,0.5],[1,0.5]];portConstraint=eastwest;whiteSpace=wrap;html=1;fontSize=17;" vertex="1" parent="vlrbVK2JiHI_tm7slKyw-14">
          <mxGeometry y="26" width="247" height="26" as="geometry" />
        </mxCell>
        <mxCell id="vlrbVK2JiHI_tm7slKyw-16" value="Actuator" style="swimlane;fontStyle=0;childLayout=stackLayout;horizontal=1;startSize=26;fillColor=none;horizontalStack=0;resizeParent=1;resizeParentMax=0;resizeLast=0;collapsible=1;marginBottom=0;whiteSpace=wrap;html=1;fontSize=17;" vertex="1" parent="1">
          <mxGeometry x="-230" y="2259" width="247" height="52" as="geometry" />
        </mxCell>
        <mxCell id="vlrbVK2JiHI_tm7slKyw-17" value="- actuatorType: string" style="text;strokeColor=none;fillColor=none;align=left;verticalAlign=top;spacingLeft=4;spacingRight=4;overflow=hidden;rotatable=0;points=[[0,0.5],[1,0.5]];portConstraint=eastwest;whiteSpace=wrap;html=1;fontSize=17;" vertex="1" parent="vlrbVK2JiHI_tm7slKyw-16">
          <mxGeometry y="26" width="247" height="26" as="geometry" />
        </mxCell>
        <mxCell id="vlrbVK2JiHI_tm7slKyw-18" value="Camera" style="swimlane;fontStyle=0;childLayout=stackLayout;horizontal=1;startSize=26;fillColor=none;horizontalStack=0;resizeParent=1;resizeParentMax=0;resizeLast=0;collapsible=1;marginBottom=0;whiteSpace=wrap;html=1;fontSize=17;" vertex="1" parent="1">
          <mxGeometry x="-560" y="2039" width="247" height="78" as="geometry" />
        </mxCell>
        <mxCell id="vlrbVK2JiHI_tm7slKyw-19" value="- cameraType : String" style="text;strokeColor=none;fillColor=none;align=left;verticalAlign=top;spacingLeft=4;spacingRight=4;overflow=hidden;rotatable=0;points=[[0,0.5],[1,0.5]];portConstraint=eastwest;whiteSpace=wrap;html=1;fontSize=17;" vertex="1" parent="vlrbVK2JiHI_tm7slKyw-18">
          <mxGeometry y="26" width="247" height="26" as="geometry" />
        </mxCell>
        <mxCell id="vlrbVK2JiHI_tm7slKyw-20" value="- captureFormat: string" style="text;strokeColor=none;fillColor=none;align=left;verticalAlign=top;spacingLeft=4;spacingRight=4;overflow=hidden;rotatable=0;points=[[0,0.5],[1,0.5]];portConstraint=eastwest;whiteSpace=wrap;html=1;fontSize=17;" vertex="1" parent="vlrbVK2JiHI_tm7slKyw-18">
          <mxGeometry y="52" width="247" height="26" as="geometry" />
        </mxCell>
        <mxCell id="vlrbVK2JiHI_tm7slKyw-21" value="Sensor" style="swimlane;fontStyle=0;childLayout=stackLayout;horizontal=1;startSize=26;fillColor=none;horizontalStack=0;resizeParent=1;resizeParentMax=0;resizeLast=0;collapsible=1;marginBottom=0;whiteSpace=wrap;html=1;fontSize=17;" vertex="1" parent="1">
          <mxGeometry x="-560" y="2189" width="247" height="78" as="geometry" />
        </mxCell>
        <mxCell id="vlrbVK2JiHI_tm7slKyw-22" value="+ sensorType: String" style="text;strokeColor=none;fillColor=none;align=left;verticalAlign=top;spacingLeft=4;spacingRight=4;overflow=hidden;rotatable=0;points=[[0,0.5],[1,0.5]];portConstraint=eastwest;whiteSpace=wrap;html=1;fontSize=17;" vertex="1" parent="vlrbVK2JiHI_tm7slKyw-21">
          <mxGeometry y="26" width="247" height="26" as="geometry" />
        </mxCell>
        <mxCell id="vlrbVK2JiHI_tm7slKyw-23" value="+ dataFormat: string" style="text;strokeColor=none;fillColor=none;align=left;verticalAlign=top;spacingLeft=4;spacingRight=4;overflow=hidden;rotatable=0;points=[[0,0.5],[1,0.5]];portConstraint=eastwest;whiteSpace=wrap;html=1;fontSize=17;" vertex="1" parent="vlrbVK2JiHI_tm7slKyw-21">
          <mxGeometry y="52" width="247" height="26" as="geometry" />
        </mxCell>
        <mxCell id="vlrbVK2JiHI_tm7slKyw-24" value="AnomalyType" style="swimlane;fontStyle=0;childLayout=stackLayout;horizontal=1;startSize=26;fillColor=none;horizontalStack=0;resizeParent=1;resizeParentMax=0;resizeLast=0;collapsible=1;marginBottom=0;whiteSpace=wrap;html=1;fontSize=17;" vertex="1" parent="1">
          <mxGeometry x="110" y="2394" width="247" height="78" as="geometry" />
        </mxCell>
        <mxCell id="vlrbVK2JiHI_tm7slKyw-25" value="- aomalyTypeId: int" style="text;strokeColor=none;fillColor=none;align=left;verticalAlign=top;spacingLeft=4;spacingRight=4;overflow=hidden;rotatable=0;points=[[0,0.5],[1,0.5]];portConstraint=eastwest;whiteSpace=wrap;html=1;fontSize=17;" vertex="1" parent="vlrbVK2JiHI_tm7slKyw-24">
          <mxGeometry y="26" width="247" height="26" as="geometry" />
        </mxCell>
        <mxCell id="vlrbVK2JiHI_tm7slKyw-26" value="- subType: string" style="text;strokeColor=none;fillColor=none;align=left;verticalAlign=top;spacingLeft=4;spacingRight=4;overflow=hidden;rotatable=0;points=[[0,0.5],[1,0.5]];portConstraint=eastwest;whiteSpace=wrap;html=1;fontSize=17;" vertex="1" parent="vlrbVK2JiHI_tm7slKyw-24">
          <mxGeometry y="52" width="247" height="26" as="geometry" />
        </mxCell>
        <mxCell id="vlrbVK2JiHI_tm7slKyw-27" value="AnomalyOccurence" style="swimlane;fontStyle=0;childLayout=stackLayout;horizontal=1;startSize=26;fillColor=none;horizontalStack=0;resizeParent=1;resizeParentMax=0;resizeLast=0;collapsible=1;marginBottom=0;whiteSpace=wrap;html=1;fontSize=17;" vertex="1" parent="1">
          <mxGeometry x="110" y="2560" width="247" height="104" as="geometry" />
        </mxCell>
        <mxCell id="vlrbVK2JiHI_tm7slKyw-28" value="- detectTime: Date" style="text;strokeColor=none;fillColor=none;align=left;verticalAlign=top;spacingLeft=4;spacingRight=4;overflow=hidden;rotatable=0;points=[[0,0.5],[1,0.5]];portConstraint=eastwest;whiteSpace=wrap;html=1;fontSize=17;" vertex="1" parent="vlrbVK2JiHI_tm7slKyw-27">
          <mxGeometry y="26" width="247" height="26" as="geometry" />
        </mxCell>
        <mxCell id="vlrbVK2JiHI_tm7slKyw-29" value="- anomalyIntensity: enum" style="text;strokeColor=none;fillColor=none;align=left;verticalAlign=top;spacingLeft=4;spacingRight=4;overflow=hidden;rotatable=0;points=[[0,0.5],[1,0.5]];portConstraint=eastwest;whiteSpace=wrap;html=1;fontSize=17;" vertex="1" parent="vlrbVK2JiHI_tm7slKyw-27">
          <mxGeometry y="52" width="247" height="26" as="geometry" />
        </mxCell>
        <mxCell id="vlrbVK2JiHI_tm7slKyw-30" value="- detectionAlgorithm: string" style="text;strokeColor=none;fillColor=none;align=left;verticalAlign=top;spacingLeft=4;spacingRight=4;overflow=hidden;rotatable=0;points=[[0,0.5],[1,0.5]];portConstraint=eastwest;whiteSpace=wrap;html=1;fontSize=17;" vertex="1" parent="vlrbVK2JiHI_tm7slKyw-27">
          <mxGeometry y="78" width="247" height="26" as="geometry" />
        </mxCell>
        <mxCell id="vlrbVK2JiHI_tm7slKyw-31" value="RemedyOccurence" style="swimlane;fontStyle=0;childLayout=stackLayout;horizontal=1;startSize=26;fillColor=none;horizontalStack=0;resizeParent=1;resizeParentMax=0;resizeLast=0;collapsible=1;marginBottom=0;whiteSpace=wrap;html=1;fontSize=17;" vertex="1" parent="1">
          <mxGeometry x="893" y="2560" width="247" height="104" as="geometry" />
        </mxCell>
        <mxCell id="vlrbVK2JiHI_tm7slKyw-32" value="- applyTime: Date" style="text;strokeColor=none;fillColor=none;align=left;verticalAlign=top;spacingLeft=4;spacingRight=4;overflow=hidden;rotatable=0;points=[[0,0.5],[1,0.5]];portConstraint=eastwest;whiteSpace=wrap;html=1;fontSize=17;" vertex="1" parent="vlrbVK2JiHI_tm7slKyw-31">
          <mxGeometry y="26" width="247" height="26" as="geometry" />
        </mxCell>
        <mxCell id="vlrbVK2JiHI_tm7slKyw-33" value="- durationTime: Date" style="text;strokeColor=none;fillColor=none;align=left;verticalAlign=top;spacingLeft=4;spacingRight=4;overflow=hidden;rotatable=0;points=[[0,0.5],[1,0.5]];portConstraint=eastwest;whiteSpace=wrap;html=1;fontSize=17;" vertex="1" parent="vlrbVK2JiHI_tm7slKyw-31">
          <mxGeometry y="52" width="247" height="26" as="geometry" />
        </mxCell>
        <mxCell id="vlrbVK2JiHI_tm7slKyw-34" value="- manufacturingState: enum" style="text;strokeColor=none;fillColor=none;align=left;verticalAlign=top;spacingLeft=4;spacingRight=4;overflow=hidden;rotatable=0;points=[[0,0.5],[1,0.5]];portConstraint=eastwest;whiteSpace=wrap;html=1;fontSize=17;" vertex="1" parent="vlrbVK2JiHI_tm7slKyw-31">
          <mxGeometry y="78" width="247" height="26" as="geometry" />
        </mxCell>
        <mxCell id="vlrbVK2JiHI_tm7slKyw-35" value="RemedyMehod" style="swimlane;fontStyle=0;childLayout=stackLayout;horizontal=1;startSize=26;fillColor=none;horizontalStack=0;resizeParent=1;resizeParentMax=0;resizeLast=0;collapsible=1;marginBottom=0;whiteSpace=wrap;html=1;fontSize=17;" vertex="1" parent="1">
          <mxGeometry x="893" y="2394" width="247" height="78" as="geometry" />
        </mxCell>
        <mxCell id="vlrbVK2JiHI_tm7slKyw-36" value="- remedyMethodId : int" style="text;strokeColor=none;fillColor=none;align=left;verticalAlign=top;spacingLeft=4;spacingRight=4;overflow=hidden;rotatable=0;points=[[0,0.5],[1,0.5]];portConstraint=eastwest;whiteSpace=wrap;html=1;fontSize=17;" vertex="1" parent="vlrbVK2JiHI_tm7slKyw-35">
          <mxGeometry y="26" width="247" height="26" as="geometry" />
        </mxCell>
        <mxCell id="vlrbVK2JiHI_tm7slKyw-37" value="- remedyMethodName: string" style="text;strokeColor=none;fillColor=none;align=left;verticalAlign=top;spacingLeft=4;spacingRight=4;overflow=hidden;rotatable=0;points=[[0,0.5],[1,0.5]];portConstraint=eastwest;whiteSpace=wrap;html=1;fontSize=17;" vertex="1" parent="vlrbVK2JiHI_tm7slKyw-35">
          <mxGeometry y="52" width="247" height="26" as="geometry" />
        </mxCell>
        <mxCell id="vlrbVK2JiHI_tm7slKyw-38" value="Manager" style="swimlane;fontStyle=0;childLayout=stackLayout;horizontal=1;startSize=26;fillColor=none;horizontalStack=0;resizeParent=1;resizeParentMax=0;resizeLast=0;collapsible=1;marginBottom=0;whiteSpace=wrap;html=1;fontSize=17;" vertex="1" parent="1">
          <mxGeometry x="893" y="2161" width="247" height="60" as="geometry" />
        </mxCell>
        <mxCell id="vlrbVK2JiHI_tm7slKyw-39" value="Worker" style="swimlane;fontStyle=0;childLayout=stackLayout;horizontal=1;startSize=26;fillColor=none;horizontalStack=0;resizeParent=1;resizeParentMax=0;resizeLast=0;collapsible=1;marginBottom=0;whiteSpace=wrap;html=1;fontSize=17;" vertex="1" parent="1">
          <mxGeometry x="893" y="2267" width="247" height="64" as="geometry" />
        </mxCell>
        <mxCell id="vlrbVK2JiHI_tm7slKyw-40" value="User" style="swimlane;fontStyle=0;childLayout=stackLayout;horizontal=1;startSize=26;fillColor=none;horizontalStack=0;resizeParent=1;resizeParentMax=0;resizeLast=0;collapsible=1;marginBottom=0;whiteSpace=wrap;html=1;fontSize=17;" vertex="1" parent="1">
          <mxGeometry x="1260" y="2170" width="247" height="130" as="geometry" />
        </mxCell>
        <mxCell id="vlrbVK2JiHI_tm7slKyw-41" value="- identification: string" style="text;strokeColor=none;fillColor=none;align=left;verticalAlign=top;spacingLeft=4;spacingRight=4;overflow=hidden;rotatable=0;points=[[0,0.5],[1,0.5]];portConstraint=eastwest;whiteSpace=wrap;html=1;fontSize=17;" vertex="1" parent="vlrbVK2JiHI_tm7slKyw-40">
          <mxGeometry y="26" width="247" height="26" as="geometry" />
        </mxCell>
        <mxCell id="vlrbVK2JiHI_tm7slKyw-42" value="- contact: string" style="text;strokeColor=none;fillColor=none;align=left;verticalAlign=top;spacingLeft=4;spacingRight=4;overflow=hidden;rotatable=0;points=[[0,0.5],[1,0.5]];portConstraint=eastwest;whiteSpace=wrap;html=1;fontSize=17;" vertex="1" parent="vlrbVK2JiHI_tm7slKyw-40">
          <mxGeometry y="52" width="247" height="26" as="geometry" />
        </mxCell>
        <mxCell id="vlrbVK2JiHI_tm7slKyw-43" value="- login: Date" style="text;strokeColor=none;fillColor=none;align=left;verticalAlign=top;spacingLeft=4;spacingRight=4;overflow=hidden;rotatable=0;points=[[0,0.5],[1,0.5]];portConstraint=eastwest;whiteSpace=wrap;html=1;fontSize=17;" vertex="1" parent="vlrbVK2JiHI_tm7slKyw-40">
          <mxGeometry y="78" width="247" height="26" as="geometry" />
        </mxCell>
        <mxCell id="vlrbVK2JiHI_tm7slKyw-44" value="- creditCard: string" style="text;strokeColor=none;fillColor=none;align=left;verticalAlign=top;spacingLeft=4;spacingRight=4;overflow=hidden;rotatable=0;points=[[0,0.5],[1,0.5]];portConstraint=eastwest;whiteSpace=wrap;html=1;fontSize=17;" vertex="1" parent="vlrbVK2JiHI_tm7slKyw-40">
          <mxGeometry y="104" width="247" height="26" as="geometry" />
        </mxCell>
        <mxCell id="vlrbVK2JiHI_tm7slKyw-45" value="ManagedObject" style="swimlane;fontStyle=0;childLayout=stackLayout;horizontal=1;startSize=26;fillColor=none;horizontalStack=0;resizeParent=1;resizeParentMax=0;resizeLast=0;collapsible=1;marginBottom=0;whiteSpace=wrap;html=1;fontSize=17;" vertex="1" parent="1">
          <mxGeometry x="480" y="2009" width="247" height="78" as="geometry" />
        </mxCell>
        <mxCell id="vlrbVK2JiHI_tm7slKyw-46" value="- managedObjectType: string" style="text;strokeColor=none;fillColor=none;align=left;verticalAlign=top;spacingLeft=4;spacingRight=4;overflow=hidden;rotatable=0;points=[[0,0.5],[1,0.5]];portConstraint=eastwest;whiteSpace=wrap;html=1;fontSize=17;" vertex="1" parent="vlrbVK2JiHI_tm7slKyw-45">
          <mxGeometry y="26" width="247" height="26" as="geometry" />
        </mxCell>
        <mxCell id="vlrbVK2JiHI_tm7slKyw-47" value="- location: string" style="text;strokeColor=none;fillColor=none;align=left;verticalAlign=top;spacingLeft=4;spacingRight=4;overflow=hidden;rotatable=0;points=[[0,0.5],[1,0.5]];portConstraint=eastwest;whiteSpace=wrap;html=1;fontSize=17;" vertex="1" parent="vlrbVK2JiHI_tm7slKyw-45">
          <mxGeometry y="52" width="247" height="26" as="geometry" />
        </mxCell>
        <mxCell id="vlrbVK2JiHI_tm7slKyw-48" value="MLManagementSession" style="swimlane;fontStyle=0;childLayout=stackLayout;horizontal=1;startSize=26;fillColor=none;horizontalStack=0;resizeParent=1;resizeParentMax=0;resizeLast=0;collapsible=1;marginBottom=0;whiteSpace=wrap;html=1;fontSize=17;" vertex="1" parent="1">
          <mxGeometry x="-70" y="1754" width="247" height="130" as="geometry" />
        </mxCell>
        <mxCell id="vlrbVK2JiHI_tm7slKyw-49" value="- sessionId: int" style="text;strokeColor=none;fillColor=none;align=left;verticalAlign=top;spacingLeft=4;spacingRight=4;overflow=hidden;rotatable=0;points=[[0,0.5],[1,0.5]];portConstraint=eastwest;whiteSpace=wrap;html=1;fontSize=17;" vertex="1" parent="vlrbVK2JiHI_tm7slKyw-48">
          <mxGeometry y="26" width="247" height="26" as="geometry" />
        </mxCell>
        <mxCell id="vlrbVK2JiHI_tm7slKyw-50" value="- evaluation: double" style="text;strokeColor=none;fillColor=none;align=left;verticalAlign=top;spacingLeft=4;spacingRight=4;overflow=hidden;rotatable=0;points=[[0,0.5],[1,0.5]];portConstraint=eastwest;whiteSpace=wrap;html=1;fontSize=17;" vertex="1" parent="vlrbVK2JiHI_tm7slKyw-48">
          <mxGeometry y="52" width="247" height="26" as="geometry" />
        </mxCell>
        <mxCell id="vlrbVK2JiHI_tm7slKyw-51" value="- trainTime: Date" style="text;strokeColor=none;fillColor=none;align=left;verticalAlign=top;spacingLeft=4;spacingRight=4;overflow=hidden;rotatable=0;points=[[0,0.5],[1,0.5]];portConstraint=eastwest;whiteSpace=wrap;html=1;fontSize=17;" vertex="1" parent="vlrbVK2JiHI_tm7slKyw-48">
          <mxGeometry y="78" width="247" height="26" as="geometry" />
        </mxCell>
        <mxCell id="vlrbVK2JiHI_tm7slKyw-52" value="- generatingTime: type" style="text;strokeColor=none;fillColor=none;align=left;verticalAlign=top;spacingLeft=4;spacingRight=4;overflow=hidden;rotatable=0;points=[[0,0.5],[1,0.5]];portConstraint=eastwest;whiteSpace=wrap;html=1;fontSize=17;" vertex="1" parent="vlrbVK2JiHI_tm7slKyw-48">
          <mxGeometry y="104" width="247" height="26" as="geometry" />
        </mxCell>
        <mxCell id="vlrbVK2JiHI_tm7slKyw-53" value="ML Model" style="swimlane;fontStyle=0;childLayout=stackLayout;horizontal=1;startSize=26;fillColor=none;horizontalStack=0;resizeParent=1;resizeParentMax=0;resizeLast=0;collapsible=1;marginBottom=0;whiteSpace=wrap;html=1;fontSize=17;" vertex="1" parent="1">
          <mxGeometry x="110" y="1961" width="247" height="78" as="geometry" />
        </mxCell>
        <mxCell id="vlrbVK2JiHI_tm7slKyw-54" value="- MLtype: string" style="text;strokeColor=none;fillColor=none;align=left;verticalAlign=top;spacingLeft=4;spacingRight=4;overflow=hidden;rotatable=0;points=[[0,0.5],[1,0.5]];portConstraint=eastwest;whiteSpace=wrap;html=1;fontSize=17;" vertex="1" parent="vlrbVK2JiHI_tm7slKyw-53">
          <mxGeometry y="26" width="247" height="26" as="geometry" />
        </mxCell>
        <mxCell id="vlrbVK2JiHI_tm7slKyw-55" value="- generatedTime: Date" style="text;strokeColor=none;fillColor=none;align=left;verticalAlign=top;spacingLeft=4;spacingRight=4;overflow=hidden;rotatable=0;points=[[0,0.5],[1,0.5]];portConstraint=eastwest;whiteSpace=wrap;html=1;fontSize=17;" vertex="1" parent="vlrbVK2JiHI_tm7slKyw-53">
          <mxGeometry y="52" width="247" height="26" as="geometry" />
        </mxCell>
        <mxCell id="vlrbVK2JiHI_tm7slKyw-56" value="StatisticalAnalysismethod" style="swimlane;fontStyle=0;childLayout=stackLayout;horizontal=1;startSize=26;fillColor=none;horizontalStack=0;resizeParent=1;resizeParentMax=0;resizeLast=0;collapsible=1;marginBottom=0;whiteSpace=wrap;html=1;fontSize=17;" vertex="1" parent="1">
          <mxGeometry x="110" y="2713" width="247" height="52" as="geometry" />
        </mxCell>
        <mxCell id="vlrbVK2JiHI_tm7slKyw-57" value="- statisticalMethodType: string" style="text;strokeColor=none;fillColor=none;align=left;verticalAlign=top;spacingLeft=4;spacingRight=4;overflow=hidden;rotatable=0;points=[[0,0.5],[1,0.5]];portConstraint=eastwest;whiteSpace=wrap;html=1;fontSize=17;" vertex="1" parent="vlrbVK2JiHI_tm7slKyw-56">
          <mxGeometry y="26" width="247" height="26" as="geometry" />
        </mxCell>
        <mxCell id="vlrbVK2JiHI_tm7slKyw-58" value="TraingingData" style="swimlane;fontStyle=0;childLayout=stackLayout;horizontal=1;startSize=26;fillColor=none;horizontalStack=0;resizeParent=1;resizeParentMax=0;resizeLast=0;collapsible=1;marginBottom=0;whiteSpace=wrap;html=1;fontSize=17;" vertex="1" parent="1">
          <mxGeometry x="-230" y="1974" width="247" height="52" as="geometry" />
        </mxCell>
        <mxCell id="vlrbVK2JiHI_tm7slKyw-59" value="- lable: string" style="text;strokeColor=none;fillColor=none;align=left;verticalAlign=top;spacingLeft=4;spacingRight=4;overflow=hidden;rotatable=0;points=[[0,0.5],[1,0.5]];portConstraint=eastwest;whiteSpace=wrap;html=1;fontSize=17;" vertex="1" parent="vlrbVK2JiHI_tm7slKyw-58">
          <mxGeometry y="26" width="247" height="26" as="geometry" />
        </mxCell>
        <mxCell id="vlrbVK2JiHI_tm7slKyw-60" value="" style="endArrow=diamondThin;endFill=0;endSize=24;html=1;rounded=0;entryX=0.784;entryY=1.179;entryDx=0;entryDy=0;entryPerimeter=0;exitX=0;exitY=0.5;exitDx=0;exitDy=0;fontSize=17;" edge="1" parent="1" source="vlrbVK2JiHI_tm7slKyw-33" target="vlrbVK2JiHI_tm7slKyw-9">
          <mxGeometry width="160" relative="1" as="geometry">
            <mxPoint x="900" y="2599" as="sourcePoint" />
            <mxPoint x="570" y="2599" as="targetPoint" />
            <Array as="points">
              <mxPoint x="674" y="2625" />
            </Array>
          </mxGeometry>
        </mxCell>
        <mxCell id="vlrbVK2JiHI_tm7slKyw-61" value="" style="endArrow=diamondThin;endFill=0;endSize=24;html=1;rounded=0;entryX=0.244;entryY=1.111;entryDx=0;entryDy=0;entryPerimeter=0;exitX=1;exitY=0.5;exitDx=0;exitDy=0;fontSize=17;" edge="1" parent="1" source="vlrbVK2JiHI_tm7slKyw-29" target="vlrbVK2JiHI_tm7slKyw-9">
          <mxGeometry width="160" relative="1" as="geometry">
            <mxPoint x="360" y="2625" as="sourcePoint" />
            <mxPoint x="650" y="2599" as="targetPoint" />
            <Array as="points">
              <mxPoint x="540" y="2625" />
            </Array>
          </mxGeometry>
        </mxCell>
        <mxCell id="vlrbVK2JiHI_tm7slKyw-62" value="" style="endArrow=diamondThin;endFill=0;endSize=24;html=1;rounded=0;exitX=0.5;exitY=0;exitDx=0;exitDy=0;entryX=0.5;entryY=1;entryDx=0;entryDy=0;entryPerimeter=0;fontSize=17;" edge="1" parent="1" source="vlrbVK2JiHI_tm7slKyw-6" target="vlrbVK2JiHI_tm7slKyw-5">
          <mxGeometry width="160" relative="1" as="geometry">
            <mxPoint x="370" y="2659" as="sourcePoint" />
            <mxPoint x="579" y="2603" as="targetPoint" />
            <Array as="points" />
          </mxGeometry>
        </mxCell>
        <mxCell id="vlrbVK2JiHI_tm7slKyw-63" value="" style="endArrow=diamondThin;endFill=0;endSize=24;html=1;rounded=0;exitX=1;exitY=0.5;exitDx=0;exitDy=0;entryX=0;entryY=0.5;entryDx=0;entryDy=0;entryPerimeter=0;fontSize=17;" edge="1" parent="1" source="vlrbVK2JiHI_tm7slKyw-12" target="vlrbVK2JiHI_tm7slKyw-3">
          <mxGeometry width="160" relative="1" as="geometry">
            <mxPoint x="614" y="2499" as="sourcePoint" />
            <mxPoint x="614" y="2329" as="targetPoint" />
            <Array as="points" />
          </mxGeometry>
        </mxCell>
        <mxCell id="vlrbVK2JiHI_tm7slKyw-64" value="" style="endArrow=diamondThin;endFill=0;endSize=24;html=1;rounded=0;entryX=1;entryY=0.5;entryDx=0;entryDy=0;exitX=1;exitY=0.5;exitDx=0;exitDy=0;fontSize=17;" edge="1" parent="1" source="vlrbVK2JiHI_tm7slKyw-47" target="vlrbVK2JiHI_tm7slKyw-7">
          <mxGeometry width="160" relative="1" as="geometry">
            <mxPoint x="460" y="2050" as="sourcePoint" />
            <mxPoint x="614" y="2329" as="targetPoint" />
            <Array as="points">
              <mxPoint x="800" y="2074" />
              <mxPoint x="800" y="2140" />
              <mxPoint x="800" y="2470" />
            </Array>
          </mxGeometry>
        </mxCell>
        <mxCell id="vlrbVK2JiHI_tm7slKyw-65" value="" style="endArrow=block;endSize=16;endFill=0;html=1;rounded=0;entryX=0;entryY=0.5;entryDx=0;entryDy=0;fontSize=17;" edge="1" parent="1" source="vlrbVK2JiHI_tm7slKyw-15" target="vlrbVK2JiHI_tm7slKyw-11">
          <mxGeometry width="160" relative="1" as="geometry">
            <mxPoint x="20" y="2169" as="sourcePoint" />
            <mxPoint x="-10" y="2179" as="targetPoint" />
            <Array as="points">
              <mxPoint x="50" y="2169" />
              <mxPoint x="50" y="2229" />
            </Array>
          </mxGeometry>
        </mxCell>
        <mxCell id="vlrbVK2JiHI_tm7slKyw-66" value="" style="endArrow=block;endSize=16;endFill=0;html=1;rounded=0;exitX=1;exitY=0.5;exitDx=0;exitDy=0;entryX=0;entryY=0.5;entryDx=0;entryDy=0;fontSize=17;" edge="1" parent="1" source="vlrbVK2JiHI_tm7slKyw-17" target="vlrbVK2JiHI_tm7slKyw-12">
          <mxGeometry width="160" relative="1" as="geometry">
            <mxPoint x="27" y="2148" as="sourcePoint" />
            <mxPoint x="110" y="2238" as="targetPoint" />
            <Array as="points">
              <mxPoint x="50" y="2298" />
              <mxPoint x="50" y="2254" />
            </Array>
          </mxGeometry>
        </mxCell>
        <mxCell id="vlrbVK2JiHI_tm7slKyw-67" value="" style="endArrow=block;endSize=16;endFill=0;html=1;rounded=0;exitX=1;exitY=0.5;exitDx=0;exitDy=0;entryX=0;entryY=0.25;entryDx=0;entryDy=0;fontSize=17;" edge="1" parent="1" source="vlrbVK2JiHI_tm7slKyw-19" target="vlrbVK2JiHI_tm7slKyw-14">
          <mxGeometry width="160" relative="1" as="geometry">
            <mxPoint x="27" y="2179" as="sourcePoint" />
            <mxPoint x="-230" y="2159" as="targetPoint" />
            <Array as="points">
              <mxPoint x="-280" y="2078" />
              <mxPoint x="-280" y="2142" />
            </Array>
          </mxGeometry>
        </mxCell>
        <mxCell id="vlrbVK2JiHI_tm7slKyw-68" value="" style="endArrow=block;endSize=16;endFill=0;html=1;rounded=0;exitX=1.001;exitY=0.735;exitDx=0;exitDy=0;entryX=0;entryY=0.5;entryDx=0;entryDy=0;exitPerimeter=0;fontSize=17;" edge="1" parent="1" source="vlrbVK2JiHI_tm7slKyw-22" target="vlrbVK2JiHI_tm7slKyw-15">
          <mxGeometry width="160" relative="1" as="geometry">
            <mxPoint x="-303" y="2088" as="sourcePoint" />
            <mxPoint x="-220" y="2152" as="targetPoint" />
            <Array as="points">
              <mxPoint x="-280" y="2234" />
              <mxPoint x="-280" y="2168" />
            </Array>
          </mxGeometry>
        </mxCell>
        <mxCell id="vlrbVK2JiHI_tm7slKyw-69" value="" style="endArrow=block;endSize=16;endFill=0;html=1;rounded=0;entryX=0;entryY=0.5;entryDx=0;entryDy=0;fontSize=17;" edge="1" parent="1" target="vlrbVK2JiHI_tm7slKyw-42">
          <mxGeometry width="160" relative="1" as="geometry">
            <mxPoint x="1140" y="2194" as="sourcePoint" />
            <mxPoint x="1210" y="2170" as="targetPoint" />
            <Array as="points">
              <mxPoint x="1190" y="2194" />
              <mxPoint x="1190" y="2235" />
            </Array>
          </mxGeometry>
        </mxCell>
        <mxCell id="vlrbVK2JiHI_tm7slKyw-70" value="" style="endArrow=block;endSize=16;endFill=0;html=1;rounded=0;exitX=1;exitY=0.5;exitDx=0;exitDy=0;entryX=0;entryY=0.5;entryDx=0;entryDy=0;fontSize=17;" edge="1" parent="1" source="vlrbVK2JiHI_tm7slKyw-39" target="vlrbVK2JiHI_tm7slKyw-43">
          <mxGeometry width="160" relative="1" as="geometry">
            <mxPoint x="944" y="2030" as="sourcePoint" />
            <mxPoint x="1052" y="1960" as="targetPoint" />
            <Array as="points">
              <mxPoint x="1190" y="2299" />
              <mxPoint x="1190" y="2260" />
            </Array>
          </mxGeometry>
        </mxCell>
        <mxCell id="vlrbVK2JiHI_tm7slKyw-71" value="" style="endArrow=none;endFill=0;endSize=12;html=1;rounded=0;exitX=0.5;exitY=0;exitDx=0;exitDy=0;fontSize=17;" edge="1" parent="1" source="vlrbVK2JiHI_tm7slKyw-14" target="vlrbVK2JiHI_tm7slKyw-59">
          <mxGeometry width="160" relative="1" as="geometry">
            <mxPoint x="-360" y="1899" as="sourcePoint" />
            <mxPoint x="-106" y="1819" as="targetPoint" />
          </mxGeometry>
        </mxCell>
        <mxCell id="vlrbVK2JiHI_tm7slKyw-72" value="" style="endArrow=diamondThin;endSize=24;endFill=0;html=1;rounded=0;exitX=0.5;exitY=0;exitDx=0;exitDy=0;entryX=0.417;entryY=1.048;entryDx=0;entryDy=0;entryPerimeter=0;fontSize=17;" edge="1" parent="1" source="vlrbVK2JiHI_tm7slKyw-58" target="vlrbVK2JiHI_tm7slKyw-52">
          <mxGeometry width="160" relative="1" as="geometry">
            <mxPoint x="-45" y="1900" as="sourcePoint" />
            <mxPoint x="140" y="1830" as="targetPoint" />
            <Array as="points">
              <mxPoint x="-106" y="1940" />
              <mxPoint x="33" y="1940" />
            </Array>
          </mxGeometry>
        </mxCell>
        <mxCell id="vlrbVK2JiHI_tm7slKyw-73" value="" style="endArrow=diamondThin;endSize=24;endFill=0;html=1;rounded=0;entryX=0.529;entryY=1.038;entryDx=0;entryDy=0;entryPerimeter=0;exitX=0.5;exitY=0;exitDx=0;exitDy=0;fontSize=17;" edge="1" parent="1" source="vlrbVK2JiHI_tm7slKyw-53" target="vlrbVK2JiHI_tm7slKyw-52">
          <mxGeometry width="160" relative="1" as="geometry">
            <mxPoint x="-35" y="1906" as="sourcePoint" />
            <mxPoint x="182" y="2020" as="targetPoint" />
            <Array as="points">
              <mxPoint x="233" y="1940" />
              <mxPoint x="61" y="1940" />
            </Array>
          </mxGeometry>
        </mxCell>
        <mxCell id="vlrbVK2JiHI_tm7slKyw-74" value="" style="endArrow=none;endFill=0;endSize=12;html=1;rounded=0;exitX=0.5;exitY=0;exitDx=0;exitDy=0;fontSize=17;" edge="1" parent="1" source="vlrbVK2JiHI_tm7slKyw-31" target="vlrbVK2JiHI_tm7slKyw-37">
          <mxGeometry width="160" relative="1" as="geometry">
            <mxPoint x="-96" y="2139" as="sourcePoint" />
            <mxPoint x="-96" y="1825" as="targetPoint" />
          </mxGeometry>
        </mxCell>
        <mxCell id="vlrbVK2JiHI_tm7slKyw-75" value="" style="endArrow=diamondThin;endFill=0;endSize=24;html=1;rounded=0;entryX=0.899;entryY=1;entryDx=0;entryDy=0;entryPerimeter=0;exitX=0.509;exitY=0.005;exitDx=0;exitDy=0;exitPerimeter=0;startArrow=none;startFill=0;fontSize=17;" edge="1" parent="1" source="vlrbVK2JiHI_tm7slKyw-35" target="vlrbVK2JiHI_tm7slKyw-5">
          <mxGeometry width="160" relative="1" as="geometry">
            <mxPoint x="230" y="2399" as="sourcePoint" />
            <mxPoint x="244" y="2482" as="targetPoint" />
            <Array as="points">
              <mxPoint x="1019" y="2359" />
              <mxPoint x="950" y="2359" />
              <mxPoint x="702" y="2359" />
            </Array>
          </mxGeometry>
        </mxCell>
        <mxCell id="vlrbVK2JiHI_tm7slKyw-76" value="" style="endArrow=diamondThin;endFill=0;endSize=24;html=1;rounded=0;entryX=0.193;entryY=1.068;entryDx=0;entryDy=0;entryPerimeter=0;fontSize=17;" edge="1" parent="1" source="vlrbVK2JiHI_tm7slKyw-24" target="vlrbVK2JiHI_tm7slKyw-5">
          <mxGeometry width="160" relative="1" as="geometry">
            <mxPoint x="230" y="2390" as="sourcePoint" />
            <mxPoint x="550" y="2329" as="targetPoint" />
            <Array as="points">
              <mxPoint x="234" y="2360" />
              <mxPoint x="528" y="2359" />
            </Array>
          </mxGeometry>
        </mxCell>
        <mxCell id="vlrbVK2JiHI_tm7slKyw-77" value="" style="endArrow=none;endFill=0;endSize=12;html=1;rounded=0;exitX=1;exitY=0.131;exitDx=0;exitDy=0;exitPerimeter=0;entryX=0;entryY=0.75;entryDx=0;entryDy=0;fontSize=17;" edge="1" parent="1" source="vlrbVK2JiHI_tm7slKyw-1" target="vlrbVK2JiHI_tm7slKyw-38">
          <mxGeometry width="160" relative="1" as="geometry">
            <mxPoint x="710" y="2230" as="sourcePoint" />
            <mxPoint x="890" y="2206" as="targetPoint" />
            <Array as="points" />
          </mxGeometry>
        </mxCell>
        <mxCell id="vlrbVK2JiHI_tm7slKyw-78" value="" style="endArrow=none;endFill=0;endSize=12;html=1;rounded=0;entryX=0;entryY=0.25;entryDx=0;entryDy=0;fontSize=17;" edge="1" parent="1" target="vlrbVK2JiHI_tm7slKyw-39">
          <mxGeometry width="160" relative="1" as="geometry">
            <mxPoint x="730" y="2283" as="sourcePoint" />
            <mxPoint x="917" y="2069" as="targetPoint" />
            <Array as="points" />
          </mxGeometry>
        </mxCell>
        <mxCell id="vlrbVK2JiHI_tm7slKyw-79" value="" style="endArrow=none;endFill=0;endSize=12;html=1;rounded=0;entryX=0.5;entryY=1.017;entryDx=0;entryDy=0;entryPerimeter=0;fontSize=17;" edge="1" parent="1" source="vlrbVK2JiHI_tm7slKyw-27" target="vlrbVK2JiHI_tm7slKyw-26">
          <mxGeometry width="160" relative="1" as="geometry">
            <mxPoint x="244" y="2589" as="sourcePoint" />
            <mxPoint x="980" y="2469" as="targetPoint" />
          </mxGeometry>
        </mxCell>
        <mxCell id="vlrbVK2JiHI_tm7slKyw-80" value="" style="endArrow=none;endFill=0;endSize=12;html=1;rounded=0;exitX=0.5;exitY=0;exitDx=0;exitDy=0;fontSize=17;" edge="1" parent="1" source="vlrbVK2JiHI_tm7slKyw-56" target="vlrbVK2JiHI_tm7slKyw-30">
          <mxGeometry width="160" relative="1" as="geometry">
            <mxPoint x="994" y="2589" as="sourcePoint" />
            <mxPoint x="994" y="2482" as="targetPoint" />
          </mxGeometry>
        </mxCell>
        <mxCell id="vlrbVK2JiHI_tm7slKyw-81" value="" style="endArrow=none;endFill=0;endSize=12;html=1;rounded=0;entryX=1;entryY=0.5;entryDx=0;entryDy=0;fontSize=17;" edge="1" parent="1" target="vlrbVK2JiHI_tm7slKyw-54">
          <mxGeometry width="160" relative="1" as="geometry">
            <mxPoint x="357" y="2590" as="sourcePoint" />
            <mxPoint x="994" y="2693" as="targetPoint" />
            <Array as="points">
              <mxPoint x="400" y="2590" />
              <mxPoint x="400" y="2530" />
              <mxPoint x="400" y="2000" />
            </Array>
          </mxGeometry>
        </mxCell>
        <mxCell id="vlrbVK2JiHI_tm7slKyw-82" value="" style="endArrow=none;endFill=0;endSize=12;html=1;rounded=0;entryX=0.5;entryY=0;entryDx=0;entryDy=0;fontSize=17;" edge="1" parent="1" source="vlrbVK2JiHI_tm7slKyw-47" target="vlrbVK2JiHI_tm7slKyw-1">
          <mxGeometry width="160" relative="1" as="geometry">
            <mxPoint x="604" y="2090" as="sourcePoint" />
            <mxPoint x="677" y="2330" as="targetPoint" />
            <Array as="points" />
          </mxGeometry>
        </mxCell>
        <mxCell id="vlrbVK2JiHI_tm7slKyw-83" value="Report" style="swimlane;fontStyle=0;childLayout=stackLayout;horizontal=1;startSize=26;fillColor=none;horizontalStack=0;resizeParent=1;resizeParentMax=0;resizeLast=0;collapsible=1;marginBottom=0;whiteSpace=wrap;html=1;fontSize=17;" vertex="1" parent="1">
          <mxGeometry x="893" y="1990" width="247" height="78" as="geometry" />
        </mxCell>
        <mxCell id="vlrbVK2JiHI_tm7slKyw-84" value="- reportId: int" style="text;strokeColor=none;fillColor=none;align=left;verticalAlign=top;spacingLeft=4;spacingRight=4;overflow=hidden;rotatable=0;points=[[0,0.5],[1,0.5]];portConstraint=eastwest;whiteSpace=wrap;html=1;fontSize=17;" vertex="1" parent="vlrbVK2JiHI_tm7slKyw-83">
          <mxGeometry y="26" width="247" height="26" as="geometry" />
        </mxCell>
        <mxCell id="vlrbVK2JiHI_tm7slKyw-85" value="- reportPeriod: Date" style="text;strokeColor=none;fillColor=none;align=left;verticalAlign=top;spacingLeft=4;spacingRight=4;overflow=hidden;rotatable=0;points=[[0,0.5],[1,0.5]];portConstraint=eastwest;whiteSpace=wrap;html=1;fontSize=17;" vertex="1" parent="vlrbVK2JiHI_tm7slKyw-83">
          <mxGeometry y="52" width="247" height="26" as="geometry" />
        </mxCell>
        <mxCell id="vlrbVK2JiHI_tm7slKyw-86" value="" style="endArrow=none;endFill=0;endSize=12;html=1;rounded=0;entryX=0.5;entryY=0;entryDx=0;entryDy=0;fontSize=17;exitX=0.503;exitY=0.985;exitDx=0;exitDy=0;exitPerimeter=0;" edge="1" parent="1" source="vlrbVK2JiHI_tm7slKyw-85" target="vlrbVK2JiHI_tm7slKyw-38">
          <mxGeometry width="160" relative="1" as="geometry">
            <mxPoint x="1030" y="2070" as="sourcePoint" />
            <mxPoint x="604" y="2539" as="targetPoint" />
            <Array as="points" />
          </mxGeometry>
        </mxCell>
        <mxCell id="vlrbVK2JiHI_tm7slKyw-87" value="" style="endArrow=none;endFill=0;endSize=12;html=1;entryX=0.5;entryY=0;entryDx=0;entryDy=0;rounded=0;exitX=0.148;exitY=0.993;exitDx=0;exitDy=0;exitPerimeter=0;fontSize=17;" edge="1" parent="1" source="vlrbVK2JiHI_tm7slKyw-47" target="vlrbVK2JiHI_tm7slKyw-10">
          <mxGeometry width="160" relative="1" as="geometry">
            <mxPoint x="480" y="2050" as="sourcePoint" />
            <mxPoint x="737" y="2238" as="targetPoint" />
            <Array as="points">
              <mxPoint x="517" y="2159" />
              <mxPoint x="234" y="2159" />
            </Array>
          </mxGeometry>
        </mxCell>
        <mxCell id="vlrbVK2JiHI_tm7slKyw-88" value="" style="endArrow=none;endFill=0;endSize=12;html=1;rounded=0;exitX=1;exitY=0.5;exitDx=0;exitDy=0;fontSize=17;" edge="1" parent="1" source="vlrbVK2JiHI_tm7slKyw-36">
          <mxGeometry width="160" relative="1" as="geometry">
            <mxPoint x="-96" y="2139" as="sourcePoint" />
            <mxPoint x="-110" y="2309" as="targetPoint" />
            <Array as="points">
              <mxPoint x="1210" y="2433" />
              <mxPoint x="1210" y="2810" />
              <mxPoint x="-110" y="2800" />
            </Array>
          </mxGeometry>
        </mxCell>
        <mxCell id="vlrbVK2JiHI_tm7slKyw-89" value="" style="endArrow=none;endFill=0;endSize=12;html=1;rounded=0;exitX=0;exitY=0.5;exitDx=0;exitDy=0;entryX=0.603;entryY=1.011;entryDx=0;entryDy=0;entryPerimeter=0;fontSize=17;" edge="1" parent="1" source="vlrbVK2JiHI_tm7slKyw-25" target="vlrbVK2JiHI_tm7slKyw-59">
          <mxGeometry width="160" relative="1" as="geometry">
            <mxPoint x="-96" y="2139" as="sourcePoint" />
            <mxPoint x="-96" y="1906" as="targetPoint" />
            <Array as="points">
              <mxPoint x="70" y="2433" />
              <mxPoint x="70" y="2070" />
              <mxPoint x="-10" y="2070" />
              <mxPoint x="-80" y="2070" />
            </Array>
          </mxGeometry>
        </mxCell>
        <mxCell id="vlrbVK2JiHI_tm7slKyw-90" value="" style="endArrow=none;endFill=0;endSize=12;html=1;rounded=0;entryX=1;entryY=0.5;entryDx=0;entryDy=0;exitX=0;exitY=0.5;exitDx=0;exitDy=0;fontSize=17;" edge="1" parent="1" source="vlrbVK2JiHI_tm7slKyw-36" target="vlrbVK2JiHI_tm7slKyw-46">
          <mxGeometry width="160" relative="1" as="geometry">
            <mxPoint x="1029" y="2404" as="sourcePoint" />
            <mxPoint x="712" y="2329" as="targetPoint" />
            <Array as="points">
              <mxPoint x="830" y="2433" />
              <mxPoint x="830" y="2048" />
            </Array>
          </mxGeometry>
        </mxCell>
        <mxCell id="vlrbVK2JiHI_tm7slKyw-91" value="" style="endArrow=none;endFill=0;endSize=12;html=1;rounded=0;entryX=0;entryY=0.5;entryDx=0;entryDy=0;exitX=1;exitY=0.5;exitDx=0;exitDy=0;fontSize=17;" edge="1" parent="1" source="vlrbVK2JiHI_tm7slKyw-25" target="vlrbVK2JiHI_tm7slKyw-46">
          <mxGeometry width="160" relative="1" as="geometry">
            <mxPoint x="244" y="2404" as="sourcePoint" />
            <mxPoint x="538" y="2331" as="targetPoint" />
            <Array as="points">
              <mxPoint x="420" y="2433" />
              <mxPoint x="420" y="2240" />
              <mxPoint x="420" y="2048" />
            </Array>
          </mxGeometry>
        </mxCell>
        <mxCell id="vlrbVK2JiHI_tm7slKyw-92" value="0...*" style="text;align=center;fontStyle=1;verticalAlign=middle;spacingLeft=3;spacingRight=3;rotatable=0;points=[[0,0.5],[1,0.5]];portConstraint=eastwest;html=1;fontSize=17;" vertex="1" parent="1">
          <mxGeometry x="600" y="2404" width="40" height="25" as="geometry" />
        </mxCell>
        <mxCell id="vlrbVK2JiHI_tm7slKyw-93" value="1" style="text;align=center;fontStyle=1;verticalAlign=middle;spacingLeft=3;spacingRight=3;rotatable=0;points=[[0,0.5],[1,0.5]];portConstraint=eastwest;html=1;fontSize=17;" vertex="1" parent="1">
          <mxGeometry x="610" y="2319" width="20" height="29" as="geometry" />
        </mxCell>
        <mxCell id="vlrbVK2JiHI_tm7slKyw-94" value="1" style="text;align=center;fontStyle=1;verticalAlign=middle;spacingLeft=3;spacingRight=3;rotatable=0;points=[[0,0.5],[1,0.5]];portConstraint=eastwest;html=1;fontSize=17;" vertex="1" parent="1">
          <mxGeometry x="540" y="2560" width="20" height="26" as="geometry" />
        </mxCell>
        <mxCell id="vlrbVK2JiHI_tm7slKyw-95" value="1" style="text;align=center;fontStyle=1;verticalAlign=middle;spacingLeft=3;spacingRight=3;rotatable=0;points=[[0,0.5],[1,0.5]];portConstraint=eastwest;html=1;fontSize=17;" vertex="1" parent="1">
          <mxGeometry x="357" y="2630" width="20" height="26" as="geometry" />
        </mxCell>
        <mxCell id="vlrbVK2JiHI_tm7slKyw-96" value="0...*" style="text;align=center;fontStyle=1;verticalAlign=middle;spacingLeft=3;spacingRight=3;rotatable=0;points=[[0,0.5],[1,0.5]];portConstraint=eastwest;html=1;fontSize=17;" vertex="1" parent="1">
          <mxGeometry x="230" y="2540" width="40" height="26" as="geometry" />
        </mxCell>
        <mxCell id="vlrbVK2JiHI_tm7slKyw-97" value="1" style="text;align=center;fontStyle=1;verticalAlign=middle;spacingLeft=3;spacingRight=3;rotatable=0;points=[[0,0.5],[1,0.5]];portConstraint=eastwest;html=1;fontSize=17;" vertex="1" parent="1">
          <mxGeometry x="240" y="2472" width="20" height="26" as="geometry" />
        </mxCell>
        <mxCell id="vlrbVK2JiHI_tm7slKyw-98" value="1" style="text;align=center;fontStyle=1;verticalAlign=middle;spacingLeft=3;spacingRight=3;rotatable=0;points=[[0,0.5],[1,0.5]];portConstraint=eastwest;html=1;fontSize=17;" vertex="1" parent="1">
          <mxGeometry x="210" y="2664" width="20" height="26" as="geometry" />
        </mxCell>
        <mxCell id="vlrbVK2JiHI_tm7slKyw-99" value="0...*" style="text;align=center;fontStyle=1;verticalAlign=middle;spacingLeft=3;spacingRight=3;rotatable=0;points=[[0,0.5],[1,0.5]];portConstraint=eastwest;html=1;fontSize=17;" vertex="1" parent="1">
          <mxGeometry x="190" y="2687" width="40" height="26" as="geometry" />
        </mxCell>
        <mxCell id="vlrbVK2JiHI_tm7slKyw-100" value="1" style="text;align=center;fontStyle=1;verticalAlign=middle;spacingLeft=3;spacingRight=3;rotatable=0;points=[[0,0.5],[1,0.5]];portConstraint=eastwest;html=1;fontSize=17;" vertex="1" parent="1">
          <mxGeometry x="360" y="2566" width="20" height="26" as="geometry" />
        </mxCell>
        <mxCell id="vlrbVK2JiHI_tm7slKyw-101" value="1...*" style="text;align=center;fontStyle=1;verticalAlign=middle;spacingLeft=3;spacingRight=3;rotatable=0;points=[[0,0.5],[1,0.5]];portConstraint=eastwest;html=1;fontSize=17;" vertex="1" parent="1">
          <mxGeometry x="357" y="1974" width="40" height="26" as="geometry" />
        </mxCell>
        <mxCell id="vlrbVK2JiHI_tm7slKyw-102" value="1...*" style="text;align=center;fontStyle=1;verticalAlign=middle;spacingLeft=3;spacingRight=3;rotatable=0;points=[[0,0.5],[1,0.5]];portConstraint=eastwest;html=1;fontSize=17;" vertex="1" parent="1">
          <mxGeometry x="-110" y="2312" width="40" height="26" as="geometry" />
        </mxCell>
        <mxCell id="vlrbVK2JiHI_tm7slKyw-154" value="" style="edgeStyle=orthogonalEdgeStyle;rounded=0;orthogonalLoop=1;jettySize=auto;html=1;fontSize=17;" edge="1" parent="1" source="vlrbVK2JiHI_tm7slKyw-103" target="vlrbVK2JiHI_tm7slKyw-153">
          <mxGeometry relative="1" as="geometry" />
        </mxCell>
        <mxCell id="vlrbVK2JiHI_tm7slKyw-103" value="1...*" style="text;align=center;fontStyle=1;verticalAlign=middle;spacingLeft=3;spacingRight=3;rotatable=0;points=[[0,0.5],[1,0.5]];portConstraint=eastwest;html=1;fontSize=17;" vertex="1" parent="1">
          <mxGeometry x="1140" y="2403" width="40" height="26" as="geometry" />
        </mxCell>
        <mxCell id="vlrbVK2JiHI_tm7slKyw-104" value="0...*" style="text;align=center;fontStyle=1;verticalAlign=middle;spacingLeft=3;spacingRight=3;rotatable=0;points=[[0,0.5],[1,0.5]];portConstraint=eastwest;html=1;fontSize=17;" vertex="1" parent="1">
          <mxGeometry x="230" y="2369" width="40" height="25" as="geometry" />
        </mxCell>
        <mxCell id="vlrbVK2JiHI_tm7slKyw-105" value="0...*" style="text;align=center;fontStyle=1;verticalAlign=middle;spacingLeft=3;spacingRight=3;rotatable=0;points=[[0,0.5],[1,0.5]];portConstraint=eastwest;html=1;fontSize=17;" vertex="1" parent="1">
          <mxGeometry x="360" y="2228" width="40" height="26" as="geometry" />
        </mxCell>
        <mxCell id="vlrbVK2JiHI_tm7slKyw-106" value="0...*" style="text;align=center;fontStyle=1;verticalAlign=middle;spacingLeft=3;spacingRight=3;rotatable=0;points=[[0,0.5],[1,0.5]];portConstraint=eastwest;html=1;fontSize=17;" vertex="1" parent="1">
          <mxGeometry x="560" y="2087" width="40" height="26" as="geometry" />
        </mxCell>
        <mxCell id="vlrbVK2JiHI_tm7slKyw-107" value="0...*" style="text;align=center;fontStyle=1;verticalAlign=middle;spacingLeft=3;spacingRight=3;rotatable=0;points=[[0,0.5],[1,0.5]];portConstraint=eastwest;html=1;fontSize=17;" vertex="1" parent="1">
          <mxGeometry x="853" y="2181" width="40" height="26" as="geometry" />
        </mxCell>
        <mxCell id="vlrbVK2JiHI_tm7slKyw-108" value="0...*" style="text;align=center;fontStyle=1;verticalAlign=middle;spacingLeft=3;spacingRight=3;rotatable=0;points=[[0,0.5],[1,0.5]];portConstraint=eastwest;html=1;fontSize=17;" vertex="1" parent="1">
          <mxGeometry x="853" y="2259" width="40" height="26" as="geometry" />
        </mxCell>
        <mxCell id="vlrbVK2JiHI_tm7slKyw-109" value="0...*" style="text;align=center;fontStyle=1;verticalAlign=middle;spacingLeft=3;spacingRight=3;rotatable=0;points=[[0,0.5],[1,0.5]];portConstraint=eastwest;html=1;fontSize=17;" vertex="1" parent="1">
          <mxGeometry x="980" y="2369" width="40" height="26" as="geometry" />
        </mxCell>
        <mxCell id="vlrbVK2JiHI_tm7slKyw-110" value="1" style="text;align=center;fontStyle=1;verticalAlign=middle;spacingLeft=3;spacingRight=3;rotatable=0;points=[[0,0.5],[1,0.5]];portConstraint=eastwest;html=1;fontSize=17;" vertex="1" parent="1">
          <mxGeometry x="500" y="2319" width="20" height="29" as="geometry" />
        </mxCell>
        <mxCell id="vlrbVK2JiHI_tm7slKyw-111" value="1" style="text;align=center;fontStyle=1;verticalAlign=middle;spacingLeft=3;spacingRight=3;rotatable=0;points=[[0,0.5],[1,0.5]];portConstraint=eastwest;html=1;fontSize=17;" vertex="1" parent="1">
          <mxGeometry x="450" y="2220.5" width="20" height="29" as="geometry" />
        </mxCell>
        <mxCell id="vlrbVK2JiHI_tm7slKyw-112" value="1" style="text;align=center;fontStyle=1;verticalAlign=middle;spacingLeft=3;spacingRight=3;rotatable=0;points=[[0,0.5],[1,0.5]];portConstraint=eastwest;html=1;fontSize=17;" vertex="1" parent="1">
          <mxGeometry x="580" y="2161" width="20" height="29" as="geometry" />
        </mxCell>
        <mxCell id="vlrbVK2JiHI_tm7slKyw-113" value="1" style="text;align=center;fontStyle=1;verticalAlign=middle;spacingLeft=3;spacingRight=3;rotatable=0;points=[[0,0.5],[1,0.5]];portConstraint=eastwest;html=1;fontSize=17;" vertex="1" parent="1">
          <mxGeometry x="990" y="2134" width="20" height="30" as="geometry" />
        </mxCell>
        <mxCell id="vlrbVK2JiHI_tm7slKyw-114" value="1" style="text;align=center;fontStyle=1;verticalAlign=middle;spacingLeft=3;spacingRight=3;rotatable=0;points=[[0,0.5],[1,0.5]];portConstraint=eastwest;html=1;fontSize=17;" vertex="1" parent="1">
          <mxGeometry x="730" y="2176.5" width="20" height="29" as="geometry" />
        </mxCell>
        <mxCell id="vlrbVK2JiHI_tm7slKyw-115" value="1" style="text;align=center;fontStyle=1;verticalAlign=middle;spacingLeft=3;spacingRight=3;rotatable=0;points=[[0,0.5],[1,0.5]];portConstraint=eastwest;html=1;fontSize=17;" vertex="1" parent="1">
          <mxGeometry x="727" y="2256" width="20" height="29" as="geometry" />
        </mxCell>
        <mxCell id="vlrbVK2JiHI_tm7slKyw-116" value="1" style="text;align=center;fontStyle=1;verticalAlign=middle;spacingLeft=3;spacingRight=3;rotatable=0;points=[[0,0.5],[1,0.5]];portConstraint=eastwest;html=1;fontSize=17;" vertex="1" parent="1">
          <mxGeometry x="707" y="2319" width="20" height="29" as="geometry" />
        </mxCell>
        <mxCell id="vlrbVK2JiHI_tm7slKyw-117" value="0...*" style="text;align=center;fontStyle=1;verticalAlign=middle;spacingLeft=3;spacingRight=3;rotatable=0;points=[[0,0.5],[1,0.5]];portConstraint=eastwest;html=1;fontSize=17;" vertex="1" parent="1">
          <mxGeometry x="980" y="2068" width="40" height="26" as="geometry" />
        </mxCell>
        <mxCell id="vlrbVK2JiHI_tm7slKyw-118" value="1...*" style="text;align=center;fontStyle=1;verticalAlign=middle;spacingLeft=3;spacingRight=3;rotatable=0;points=[[0,0.5],[1,0.5]];portConstraint=eastwest;html=1;fontSize=17;" vertex="1" parent="1">
          <mxGeometry x="727" y="2026" width="40" height="26" as="geometry" />
        </mxCell>
        <mxCell id="vlrbVK2JiHI_tm7slKyw-119" value="1...*" style="text;align=center;fontStyle=1;verticalAlign=middle;spacingLeft=3;spacingRight=3;rotatable=0;points=[[0,0.5],[1,0.5]];portConstraint=eastwest;html=1;fontSize=17;" vertex="1" parent="1">
          <mxGeometry x="853" y="2404" width="40" height="26" as="geometry" />
        </mxCell>
        <mxCell id="vlrbVK2JiHI_tm7slKyw-120" value="1...*" style="text;align=center;fontStyle=1;verticalAlign=middle;spacingLeft=3;spacingRight=3;rotatable=0;points=[[0,0.5],[1,0.5]];portConstraint=eastwest;html=1;fontSize=17;" vertex="1" parent="1">
          <mxGeometry x="430" y="2026" width="40" height="26" as="geometry" />
        </mxCell>
        <mxCell id="vlrbVK2JiHI_tm7slKyw-121" value="1...*" style="text;align=center;fontStyle=1;verticalAlign=middle;spacingLeft=3;spacingRight=3;rotatable=0;points=[[0,0.5],[1,0.5]];portConstraint=eastwest;html=1;fontSize=17;" vertex="1" parent="1">
          <mxGeometry x="360" y="2404" width="40" height="26" as="geometry" />
        </mxCell>
        <mxCell id="vlrbVK2JiHI_tm7slKyw-122" value="0...*" style="text;align=center;fontStyle=1;verticalAlign=middle;spacingLeft=3;spacingRight=3;rotatable=0;points=[[0,0.5],[1,0.5]];portConstraint=eastwest;html=1;fontSize=17;" vertex="1" parent="1">
          <mxGeometry x="1020" y="2540" width="40" height="26" as="geometry" />
        </mxCell>
        <mxCell id="vlrbVK2JiHI_tm7slKyw-123" value="1" style="text;align=center;fontStyle=1;verticalAlign=middle;spacingLeft=3;spacingRight=3;rotatable=0;points=[[0,0.5],[1,0.5]];portConstraint=eastwest;html=1;fontSize=17;" vertex="1" parent="1">
          <mxGeometry x="1020" y="2482" width="20" height="26" as="geometry" />
        </mxCell>
        <mxCell id="vlrbVK2JiHI_tm7slKyw-124" value="0...*" style="text;align=center;fontStyle=1;verticalAlign=middle;spacingLeft=3;spacingRight=3;rotatable=0;points=[[0,0.5],[1,0.5]];portConstraint=eastwest;html=1;fontSize=17;" vertex="1" parent="1">
          <mxGeometry x="853" y="2599" width="40" height="26" as="geometry" />
        </mxCell>
        <mxCell id="vlrbVK2JiHI_tm7slKyw-125" value="0...*" style="text;align=center;fontStyle=1;verticalAlign=middle;spacingLeft=3;spacingRight=3;rotatable=0;points=[[0,0.5],[1,0.5]];portConstraint=eastwest;html=1;fontSize=17;" vertex="1" parent="1">
          <mxGeometry x="680" y="2540" width="40" height="26" as="geometry" />
        </mxCell>
        <mxCell id="vlrbVK2JiHI_tm7slKyw-126" value="1" style="text;align=center;fontStyle=1;verticalAlign=middle;spacingLeft=3;spacingRight=3;rotatable=0;points=[[0,0.5],[1,0.5]];portConstraint=eastwest;html=1;fontSize=17;" vertex="1" parent="1">
          <mxGeometry x="-150" y="2027" width="40" height="25" as="geometry" />
        </mxCell>
        <mxCell id="vlrbVK2JiHI_tm7slKyw-127" value="1...*" style="text;align=center;fontStyle=1;verticalAlign=middle;spacingLeft=3;spacingRight=3;rotatable=0;points=[[0,0.5],[1,0.5]];portConstraint=eastwest;html=1;fontSize=17;" vertex="1" parent="1">
          <mxGeometry x="-150" y="2104" width="40" height="25" as="geometry" />
        </mxCell>
        <mxCell id="vlrbVK2JiHI_tm7slKyw-128" value="1" style="text;align=center;fontStyle=1;verticalAlign=middle;spacingLeft=3;spacingRight=3;rotatable=0;points=[[0,0.5],[1,0.5]];portConstraint=eastwest;html=1;fontSize=17;" vertex="1" parent="1">
          <mxGeometry x="-80" y="2027" width="40" height="25" as="geometry" />
        </mxCell>
        <mxCell id="vlrbVK2JiHI_tm7slKyw-129" value="0...*" style="text;align=center;fontStyle=1;verticalAlign=middle;spacingLeft=3;spacingRight=3;rotatable=0;points=[[0,0.5],[1,0.5]];portConstraint=eastwest;html=1;fontSize=17;" vertex="1" parent="1">
          <mxGeometry x="70" y="2440" width="40" height="25" as="geometry" />
        </mxCell>
        <mxCell id="vlrbVK2JiHI_tm7slKyw-130" value="1" style="text;align=center;fontStyle=1;verticalAlign=middle;spacingLeft=3;spacingRight=3;rotatable=0;points=[[0,0.5],[1,0.5]];portConstraint=eastwest;html=1;fontSize=17;" vertex="1" parent="1">
          <mxGeometry x="60" y="1910" width="40" height="25" as="geometry" />
        </mxCell>
        <mxCell id="vlrbVK2JiHI_tm7slKyw-131" value="1" style="text;align=center;fontStyle=1;verticalAlign=middle;spacingLeft=3;spacingRight=3;rotatable=0;points=[[0,0.5],[1,0.5]];portConstraint=eastwest;html=1;fontSize=17;" vertex="1" parent="1">
          <mxGeometry x="-10" y="1910" width="40" height="25" as="geometry" />
        </mxCell>
        <mxCell id="vlrbVK2JiHI_tm7slKyw-132" value="1...*" style="text;align=center;fontStyle=1;verticalAlign=middle;spacingLeft=3;spacingRight=3;rotatable=0;points=[[0,0.5],[1,0.5]];portConstraint=eastwest;html=1;fontSize=17;" vertex="1" parent="1">
          <mxGeometry x="230" y="1935" width="40" height="26" as="geometry" />
        </mxCell>
        <mxCell id="vlrbVK2JiHI_tm7slKyw-133" value="1...*" style="text;align=center;fontStyle=1;verticalAlign=middle;spacingLeft=3;spacingRight=3;rotatable=0;points=[[0,0.5],[1,0.5]];portConstraint=eastwest;html=1;fontSize=17;" vertex="1" parent="1">
          <mxGeometry x="-110" y="1948" width="40" height="26" as="geometry" />
        </mxCell>
        <mxCell id="vlrbVK2JiHI_tm7slKyw-134" value="" style="endArrow=diamondThin;endFill=0;endSize=24;html=1;rounded=0;exitX=1;exitY=0.5;exitDx=0;exitDy=0;entryX=-0.006;entryY=0.086;entryDx=0;entryDy=0;entryPerimeter=0;fontSize=17;" edge="1" parent="1" source="vlrbVK2JiHI_tm7slKyw-50" target="vlrbVK2JiHI_tm7slKyw-1">
          <mxGeometry width="160" relative="1" as="geometry">
            <mxPoint x="367" y="2264" as="sourcePoint" />
            <mxPoint x="490" y="2264" as="targetPoint" />
            <Array as="points">
              <mxPoint x="410" y="1820" />
              <mxPoint x="410" y="2200" />
            </Array>
          </mxGeometry>
        </mxCell>
        <mxCell id="vlrbVK2JiHI_tm7slKyw-135" value="1" style="text;align=center;fontStyle=1;verticalAlign=middle;spacingLeft=3;spacingRight=3;rotatable=0;points=[[0,0.5],[1,0.5]];portConstraint=eastwest;html=1;fontSize=17;" vertex="1" parent="1">
          <mxGeometry x="420" y="2176.5" width="40" height="25" as="geometry" />
        </mxCell>
        <mxCell id="vlrbVK2JiHI_tm7slKyw-136" value="0...*" style="text;align=center;fontStyle=1;verticalAlign=middle;spacingLeft=3;spacingRight=3;rotatable=0;points=[[0,0.5],[1,0.5]];portConstraint=eastwest;html=1;fontSize=17;" vertex="1" parent="1">
          <mxGeometry x="177" y="1820" width="40" height="26" as="geometry" />
        </mxCell>
        <mxCell id="vlrbVK2JiHI_tm7slKyw-137" value="" style="rounded=1;whiteSpace=wrap;html=1;fontSize=17;" vertex="1" parent="1">
          <mxGeometry x="853" y="1786" width="197" height="94" as="geometry" />
        </mxCell>
        <mxCell id="vlrbVK2JiHI_tm7slKyw-138" value="" style="html=1;shadow=0;dashed=0;align=center;verticalAlign=middle;shape=mxgraph.arrows2.arrow;dy=0.47;dx=24.41;flipH=1;notch=0;fillColor=#ffe6cc;strokeColor=#d79b00;fontSize=17;" vertex="1" parent="1">
          <mxGeometry x="870" y="1804" width="50" height="30" as="geometry" />
        </mxCell>
        <mxCell id="vlrbVK2JiHI_tm7slKyw-140" value="" style="html=1;shadow=0;dashed=0;align=center;verticalAlign=middle;shape=mxgraph.arrows2.arrow;dy=0.47;dx=24.41;flipH=1;notch=0;fillColor=#dae8fc;strokeColor=#6c8ebf;fontSize=17;" vertex="1" parent="1">
          <mxGeometry x="870" y="1838" width="50" height="30" as="geometry" />
        </mxCell>
        <mxCell id="vlrbVK2JiHI_tm7slKyw-141" value="Added component" style="text;html=1;strokeColor=none;fillColor=none;align=center;verticalAlign=middle;whiteSpace=wrap;rounded=0;fontSize=17;" vertex="1" parent="1">
          <mxGeometry x="920" y="1804" width="120" height="30" as="geometry" />
        </mxCell>
        <mxCell id="vlrbVK2JiHI_tm7slKyw-143" value="Modified relationship" style="text;html=1;strokeColor=none;fillColor=none;align=center;verticalAlign=middle;whiteSpace=wrap;rounded=0;fontSize=17;" vertex="1" parent="1">
          <mxGeometry x="920" y="1838" width="120" height="30" as="geometry" />
        </mxCell>
        <mxCell id="vlrbVK2JiHI_tm7slKyw-144" value="" style="html=1;shadow=0;dashed=0;align=center;verticalAlign=middle;shape=mxgraph.arrows2.arrow;dy=0.47;dx=24.41;flipH=1;notch=0;fillColor=#ffe6cc;strokeColor=#d79b00;rotation=-45;fontSize=17;" vertex="1" parent="1">
          <mxGeometry x="707" y="2410" width="50" height="30" as="geometry" />
        </mxCell>
        <mxCell id="vlrbVK2JiHI_tm7slKyw-145" value="" style="html=1;shadow=0;dashed=0;align=center;verticalAlign=middle;shape=mxgraph.arrows2.arrow;dy=0.47;dx=24.41;flipH=1;notch=0;fillColor=#ffe6cc;strokeColor=#d79b00;rotation=-45;fontSize=17;" vertex="1" parent="1">
          <mxGeometry x="1060" y="1960" width="50" height="30" as="geometry" />
        </mxCell>
        <mxCell id="vlrbVK2JiHI_tm7slKyw-146" value="" style="html=1;shadow=0;dashed=0;align=center;verticalAlign=middle;shape=mxgraph.arrows2.arrow;dy=0.47;dx=24.41;flipH=1;notch=0;fillColor=#ffe6cc;strokeColor=#d79b00;rotation=-45;fontSize=17;" vertex="1" parent="1">
          <mxGeometry x="172" y="1724" width="50" height="30" as="geometry" />
        </mxCell>
        <mxCell id="vlrbVK2JiHI_tm7slKyw-147" value="" style="html=1;shadow=0;dashed=0;align=center;verticalAlign=middle;shape=mxgraph.arrows2.arrow;dy=0.47;dx=24.41;flipH=1;notch=0;fillColor=#dae8fc;strokeColor=#6c8ebf;rotation=-45;fontSize=17;" vertex="1" parent="1">
          <mxGeometry x="330" y="2117" width="50" height="30" as="geometry" />
        </mxCell>
        <mxCell id="vlrbVK2JiHI_tm7slKyw-148" value="" style="html=1;shadow=0;dashed=0;align=center;verticalAlign=middle;shape=mxgraph.arrows2.arrow;dy=0.47;dx=24.41;flipH=1;notch=0;fillColor=#dae8fc;strokeColor=#6c8ebf;rotation=-45;fontSize=17;" vertex="1" parent="1">
          <mxGeometry x="380" y="1944" width="50" height="30" as="geometry" />
        </mxCell>
        <mxCell id="vlrbVK2JiHI_tm7slKyw-149" value="0...*" style="text;align=center;fontStyle=1;verticalAlign=middle;spacingLeft=3;spacingRight=3;rotatable=0;points=[[0,0.5],[1,0.5]];portConstraint=eastwest;html=1;fontSize=17;" vertex="1" parent="1">
          <mxGeometry x="240" y="2164" width="40" height="26" as="geometry" />
        </mxCell>
        <mxCell id="vlrbVK2JiHI_tm7slKyw-150" value="1...*" style="text;align=center;fontStyle=1;verticalAlign=middle;spacingLeft=3;spacingRight=3;rotatable=0;points=[[0,0.5],[1,0.5]];portConstraint=eastwest;html=1;fontSize=17;" vertex="1" parent="1">
          <mxGeometry x="480" y="2087" width="40" height="26" as="geometry" />
        </mxCell>
        <mxCell id="vlrbVK2JiHI_tm7slKyw-151" value="" style="html=1;shadow=0;dashed=0;align=center;verticalAlign=middle;shape=mxgraph.arrows2.arrow;dy=0.47;dx=24.41;flipH=1;notch=0;fillColor=#dae8fc;strokeColor=#6c8ebf;rotation=-45;fontSize=17;" vertex="1" parent="1">
          <mxGeometry x="780" y="2009" width="50" height="30" as="geometry" />
        </mxCell>
        <mxCell id="vlrbVK2JiHI_tm7slKyw-152" value="" style="html=1;shadow=0;dashed=0;align=center;verticalAlign=middle;shape=mxgraph.arrows2.arrow;dy=0.47;dx=24.41;flipH=1;notch=0;fillColor=#ffe6cc;strokeColor=#d79b00;rotation=-45;fontSize=17;" vertex="1" parent="1">
          <mxGeometry x="20" y="1960" width="50" height="30" as="geometry" />
        </mxCell>
        <mxCell id="vlrbVK2JiHI_tm7slKyw-153" value="" style="html=1;shadow=0;dashed=0;align=center;verticalAlign=middle;shape=mxgraph.arrows2.arrow;dy=0.47;dx=24.41;flipH=1;notch=0;fillColor=#dae8fc;strokeColor=#6c8ebf;rotation=-45;fontSize=17;" vertex="1" parent="1">
          <mxGeometry x="1180" y="2390" width="50" height="30" as="geometry" />
        </mxCell>
        <mxCell id="vlrbVK2JiHI_tm7slKyw-155" value="" style="html=1;shadow=0;dashed=0;align=center;verticalAlign=middle;shape=mxgraph.arrows2.arrow;dy=0.47;dx=24.41;flipH=1;notch=0;fillColor=#dae8fc;strokeColor=#6c8ebf;rotation=-45;fontSize=17;" vertex="1" parent="1">
          <mxGeometry x="250" y="2670" width="50" height="30" as="geometry" />
        </mxCell>
      </root>
    </mxGraphModel>
  </diagram>
</mxfile>
